{"title":"18+ Black Road 2016 UNCENSORED Movies HDRip XviD New +Sample ☻rD","uid":15635460,"size":739351278,"categoryP":"video","categoryS":"movies","magnet":"?xt=urn:btih:92f279e5dae2becb1d1bb76c7c8a07f0f37b8e89&amp;dn=18%2B+Black+Road+2016+UNCENSORED+Movies+HDRip+XviD+New+%2BSample+%E2%98%BBrD&amp;tr=udp%3A%2F%2Ftracker.leechers-paradise.org%3A6969&amp;tr=udp%3A%2F%2Fzer0day.ch%3A1337&amp;tr=udp%3A%2F%2Fopen.demonii.com%3A1337&amp;tr=udp%3A%2F%2Ftracker.coppersurfer.tk%3A6969&amp;tr=udp%3A%2F%2Fexodus.desync.com%3A6969","seeders":3,"leechers":2,"uploader":"basicssom","files":2,"time":1471983082,"description":"----------------------------------------------------------------\r\n18+ Black Road 2016 UNCENSORED English Movies HDRip XviD AAC New Source with Sample ☻rDX☻\r\n\r\nSCREEN SHOTS &amp; POSTER:\r\n  \nhttp://postimage.co.nr/2016/8/tshirt/index.htm  \nhttp://postimage.co.nr/2016/8/tshirt/1.html  \nhttp://postimage.co.nr/2016/8/tshirt/2.html  \nhttp://postimage.co.nr/2016/8/tshirt/3.html  \nhttp://postimage.co.nr/2016/8/tshirt/4.html  \nhttp://postimage.co.nr/2016/8/tshirt/5.html  \nhttp://postimage.co.nr/2016/8/tshirt/6.html  \nhttp://postimage.co.nr/2016/8/tshirt/7.html  \nhttp://postimage.co.nr/2016/8/tshirt/8.html  \nhttp://postimage.co.nr/2016/8/tshirt/9.html  \nhttp://postimage.co.nr/2016/8/tshirt/10.html\r\n\r\nFormat                                   : Matroska\r\nFormat version                           : Version 4 / Version 2\r\nFile size                                : 698 MiB\r\nDuration                                 : 1 h 21 min\r\nOverall bit rate mode                    : Constant\r\nOverall bit rate                         : 1 203 kb/s\r\nMovie name                               : 18+ Black Road 2016 UNCENSORED English Movies HDRip XviD AAC New Source ☻rDX☻\r\n\r\nVideo\r\nID                                       : 2\r\nFormat                                   : AVC\r\nFormat/Info                              : Advanced Video Codec\r\nFormat profile                           :   \r\nFormat settings, CABAC                   : Yes\r\nFormat settings, ReFrames                : 2 frames\r\nFormat settings, GOP                     : M=1, N=12\r\nCodec ID                                 : V_MPEG4/ISO/AVC\r\nDuration                                 : 1 h 21 min\r\nBit rate mode                            : Constant\r\nBit rate                                 : 820 kb/s\r\nWidth                                    : 720 pixels\r\nHeight                                   : 304 pixels\r\nDisplay aspect ratio                     : 2.35:1\r\nFrame rate mode                          : Constant\r\nFrame rate                               : 23.976 FPS\r\nColor space                              : YUV\r\nChroma subsampling                       : 4:2:0\r\nBit depth                                : 8 bits\r\nScan type                                : Progressive\r\nBits/(Pixel*Frame)                       : 0.156\r\nStream size                              : 461 MiB (66%)\r\nTitle                                    : ☻rDX☻\r\nDefault                                  : Yes\r\nForced                                   : No\r\n\r\nAudio\r\nID                                       : 1\r\nFormat                                   : AC-3\r\nFormat/Info                              : Audio Coding 3\r\nMode extension                           : CM (complete main)\r\nFormat settings, Endianness              : Big\r\nCodec ID                                 : A_AC3\r\nDuration                                 : 1 h 21 min\r\nBit rate mode                            : Constant\r\nBit rate                                 : 384 kb/s\r\nChannel(s)                               : 6 channels\r\nChannel positions                        : Front: L C R, Side: L R, LFE\r\nSampling rate                            : 48.0 kHz\r\nFrame rate                               : 31.250 FPS (1536 spf)\r\nCompression mode                         : Lossy\r\nStream size                              : 223 MiB (32%)\r\nTitle                                    : ☻rDX☻\r\nDefault                                  : Yes\r\nForced                                   : No\r\n\r\nIMDB \nhttp://www.imdb.com/title/tt3829874/","torrent":{"xt":"urn:btih:92f279e5dae2becb1d1bb76c7c8a07f0f37b8e89","amp;dn":"18%2B+Black+Road+2016+UNCENSORED+Movies+HDRip+XviD+New+%2BSample+%E2%98%BBrD","amp;tr":["udp%3A%2F%2Ftracker.leechers-paradise.org%3A6969","udp%3A%2F%2Fzer0day.ch%3A1337","udp%3A%2F%2Fopen.demonii.com%3A1337","udp%3A%2F%2Ftracker.coppersurfer.tk%3A6969","udp%3A%2F%2Fexodus.desync.com%3A6969"],"infoHash":"92f279e5dae2becb1d1bb76c7c8a07f0f37b8e89","infoHashBuffer":{"type":"Buffer","data":[146,242,121,229,218,226,190,203,29,27,183,108,124,138,7,240,243,123,142,137]},"announce":[],"urlList":[]}}